<svg width="234" height="30" viewBox="0 0 234 30" fill="none" xmlns="http://www.w3.org/2000/svg">
<g clip-path="url(#clip0_849_16625)">
<path d="M26.0038 29.1878L14.6752 4.7069L8.26297 18.5763H14.9241L16.1957 21.4226H6.95193L3.37123 29.1878H0L13.3691 0.276001H15.9789L29.348 29.1878H26.0038Z" fill="url(#paint0_linear_849_16625)"/>
<path d="M72.2203 29.6634C70.3139 29.6813 68.4239 29.3093 66.6665 28.5702C64.9091 27.8311 63.3213 26.7406 62.0006 25.3656C59.386 22.6277 57.9443 18.9139 57.9443 14.9093V14.8305C57.9443 6.51574 64.2506 0 72.2992 0C77.6838 0 80.8184 2.19574 83.406 4.56644L83.7806 4.90898L81.6169 7.1269L81.2645 6.78682C79.2511 4.83752 76.6044 2.84386 72.2597 2.84386C65.8795 2.84386 61.0691 7.95985 61.0691 14.7467V14.8255C61.0691 21.5458 65.9978 26.8097 72.2992 26.8097C75.8257 26.8097 78.4921 25.6021 81.4986 22.6351L81.8436 22.2974L83.9358 24.3305L83.5785 24.6829C81.0846 27.1473 77.7848 29.6634 72.2203 29.6634Z" fill="white"/>
<path d="M135.429 29.1853L129.699 16.797C130.698 16.4188 131.623 15.8683 132.432 15.1705C134.184 13.6352 135.111 11.474 135.111 8.92833V8.847C135.115 6.79147 134.309 4.81697 132.868 3.35151C131.012 1.49586 128.117 0.473145 124.716 0.473145H112.589V29.1853H115.635V3.36383H124.61C129.292 3.36383 132.077 5.44374 132.077 8.9308V9.00966C132.077 12.5608 129.1 14.8551 124.492 14.8551H121.389V17.7014H124.25C125.068 17.7042 125.886 17.6523 126.697 17.5462L132.084 29.1853H135.429Z" fill="white"/>
<path d="M164.214 29.1877V0.475586H184.925V3.36134H167.26V26.2995H185.125V29.1877H164.214Z" fill="white"/>
<path d="M184.797 13.2681H173.059V16.1563H184.797V13.2681Z" fill="white"/>
<path d="M224.318 29.5846C219.899 29.5846 216.353 28.1774 212.819 25.0206L212.457 24.6977L214.458 22.4034L214.83 22.746C217.942 25.6169 220.636 26.7358 224.441 26.7358C228.28 26.7358 230.959 24.6756 230.959 21.7233V21.6444C230.959 19.1012 229.774 17.4846 223.514 16.2229C216.592 14.8231 213.77 12.4228 213.77 7.9377V7.85884C213.77 3.42301 217.812 0.076416 223.174 0.076416C227.073 0.076416 229.917 1.08434 232.99 3.55115L233.374 3.86166L231.437 6.26687L231.05 5.93418C228.64 3.85181 226.188 2.92274 223.095 2.92274C219.455 2.92274 216.814 4.91641 216.814 7.65923V7.74548C216.814 10.3404 218.046 11.9989 224.502 13.3223C231.156 14.6777 234.005 17.1075 234.005 21.4547V21.5335C234 26.27 230.018 29.5846 224.318 29.5846Z" fill="white"/>
</g>
<defs>
<linearGradient id="paint0_linear_849_16625" x1="0" y1="14.7319" x2="29.348" y2="14.7319" gradientUnits="userSpaceOnUse">
<stop offset="0.1" stop-color="#FFC200"/>
<stop offset="0.94" stop-color="#F50008"/>
</linearGradient>
<clipPath id="clip0_849_16625">
<rect width="234" height="29.6609" fill="white"/>
</clipPath>
</defs>
</svg>
